<?xml version="1.0" encoding="utf-8"?><!-- Uploaded to: SVG Repo, www.svgrepo.com, Generator: SVG Repo Mixer Tools -->
<svg width="800px" height="800px" viewBox="0 0 24 24" fill="none" xmlns="http://www.w3.org/2000/svg">
<path d="M14.05 6C15.0268 6.19057 15.9244 6.66826 16.6281 7.37194C17.3318 8.07561 17.8095 8.97326 18 9.95M14.05 2C16.0793 2.22544 17.9716 3.13417 19.4163 4.57701C20.8609 6.01984 21.7721 7.91101 22 9.94M18.5 21C9.93959 21 3 14.0604 3 5.5C3 5.11378 3.01413 4.73086 3.04189 4.35173C3.07375 3.91662 3.08968 3.69907 3.2037 3.50103C3.29814 3.33701 3.4655 3.18146 3.63598 3.09925C3.84181 3 4.08188 3 4.56201 3H7.37932C7.78308 3 7.98496 3 8.15802 3.06645C8.31089 3.12515 8.44701 3.22049 8.55442 3.3441C8.67601 3.48403 8.745 3.67376 8.88299 4.05321L10.0491 7.26005C10.2096 7.70153 10.2899 7.92227 10.2763 8.1317C10.2643 8.31637 10.2012 8.49408 10.0942 8.64506C9.97286 8.81628 9.77145 8.93713 9.36863 9.17882L8 10C9.2019 12.6489 11.3501 14.7999 14 16L14.8212 14.6314C15.0629 14.2285 15.1837 14.0271 15.3549 13.9058C15.5059 13.7988 15.6836 13.7357 15.8683 13.7237C16.0777 13.7101 16.2985 13.7904 16.74 13.9509L19.9468 15.117C20.3262 15.255 20.516 15.324 20.6559 15.4456C20.7795 15.553 20.8749 15.6891 20.9335 15.842C21 16.015 21 16.2169 21 16.6207V19.438C21 19.9181 21 20.1582 20.9007 20.364C20.8185 20.5345 20.663 20.7019 20.499 20.7963C20.3009 20.9103 20.0834 20.9262 19.6483 20.9581C19.2691 20.9859 18.8862 21 18.5 21Z" stroke="#000000" stroke-width="2" stroke-linecap="round" stroke-linejoin="round"/>
</svg>


<svg width="151px" height="151px" viewBox="0 0 24.00 24.00" fill="none" xmlns="http://www.w3.org/2000/svg" stroke="#ffffff" stroke-width="0.00024000000000000003"><g id="SVGRepo_bgCarrier" stroke-width="0"></g><g id="SVGRepo_tracerCarrier" stroke-linecap="round" stroke-linejoin="round"></g><g id="SVGRepo_iconCarrier"> <path fill-rule="evenodd" clip-rule="evenodd" d="M6.00745 3.40686C7.68752 1.72679 10.5227 1.85451 11.6925 3.95063L12.3415 5.11356C13.1054 6.48238 12.7799 8.20946 11.6616 9.34143C11.6467 9.36184 11.5677 9.47677 11.5579 9.67758C11.5454 9.93391 11.6364 10.5267 12.5548 11.4451C13.4729 12.3632 14.0656 12.4545 14.3221 12.442C14.5231 12.4322 14.6381 12.3533 14.6585 12.3383C15.7905 11.2201 17.5176 10.8945 18.8864 11.6584L20.0493 12.3075C22.1454 13.4773 22.2731 16.3124 20.5931 17.9925C19.6944 18.8911 18.4995 19.6896 17.0953 19.7429C15.0144 19.8218 11.5591 19.2844 8.13735 15.8626C4.71556 12.4408 4.17818 8.98556 4.25706 6.90463C4.3103 5.50044 5.10879 4.30552 6.00745 3.40686ZM10.3827 4.68163C9.78363 3.60828 8.17394 3.36169 7.06811 4.46752C6.29276 5.24287 5.7887 6.09868 5.75599 6.96146C5.6902 8.6968 6.11864 11.7226 9.19801 14.8019C12.2774 17.8813 15.3031 18.3097 17.0385 18.2439C17.9013 18.2112 18.7571 17.7072 19.5324 16.9318C20.6382 15.826 20.3916 14.2163 19.3183 13.6173L18.1554 12.9683C17.432 12.5645 16.4158 12.7023 15.7025 13.4156L15.7023 13.4158C15.6322 13.4858 15.1864 13.9018 14.395 13.9403C13.5847 13.9797 12.604 13.6156 11.4942 12.5058C10.384 11.3956 10.02 10.4146 10.0597 9.60423C10.0985 8.81271 10.5147 8.36711 10.5843 8.29746L10.5844 8.29743C11.2977 7.58411 11.4354 6.56797 11.0317 5.84456L10.3827 4.68163Z" fill="#ff8040"></path> </g></svg>